<mxfile host="Electron" agent="Mozilla/5.0 (Windows NT 10.0; Win64; x64) AppleWebKit/537.36 (KHTML, like Gecko) draw.io/26.0.16 Chrome/132.0.6834.196 Electron/34.2.0 Safari/537.36" version="26.0.16">
  <diagram name="페이지-1" id="FY2SS689eht0nIPa3hwd">
    <mxGraphModel dx="1320" dy="1978" grid="1" gridSize="10" guides="1" tooltips="1" connect="1" arrows="1" fold="1" page="1" pageScale="1" pageWidth="827" pageHeight="1169" math="0" shadow="0">
      <root>
        <mxCell id="0" />
        <mxCell id="1" parent="0" />
        <mxCell id="Bj0vruQmG_XCiIiM3-yW-35" value="" style="edgeStyle=orthogonalEdgeStyle;rounded=0;orthogonalLoop=1;jettySize=auto;html=1;strokeWidth=2;" edge="1" parent="1" source="Bj0vruQmG_XCiIiM3-yW-1" target="Bj0vruQmG_XCiIiM3-yW-34">
          <mxGeometry relative="1" as="geometry" />
        </mxCell>
        <mxCell id="Bj0vruQmG_XCiIiM3-yW-1" value="IDLE&lt;div&gt;&lt;br&gt;&lt;/div&gt;&lt;div&gt;SDA = 1, SCL = 1&lt;/div&gt;" style="rounded=1;whiteSpace=wrap;html=1;align=center;verticalAlign=top;fontStyle=1;fontSize=14;" vertex="1" parent="1">
          <mxGeometry x="865" y="940" width="180" height="100" as="geometry" />
        </mxCell>
        <mxCell id="Bj0vruQmG_XCiIiM3-yW-42" value="" style="edgeStyle=orthogonalEdgeStyle;rounded=0;orthogonalLoop=1;jettySize=auto;html=1;strokeWidth=2;" edge="1" parent="1" source="Bj0vruQmG_XCiIiM3-yW-2" target="Bj0vruQmG_XCiIiM3-yW-41">
          <mxGeometry relative="1" as="geometry" />
        </mxCell>
        <mxCell id="Bj0vruQmG_XCiIiM3-yW-2" value="START1&lt;br&gt;&lt;div&gt;&lt;br&gt;&lt;/div&gt;&lt;div&gt;SDA = 0, SCL = 1&lt;/div&gt;" style="rounded=1;whiteSpace=wrap;html=1;align=center;verticalAlign=top;fontStyle=1;fontSize=14;" vertex="1" parent="1">
          <mxGeometry x="865" y="1310" width="180" height="100" as="geometry" />
        </mxCell>
        <mxCell id="Bj0vruQmG_XCiIiM3-yW-3" value="START2&lt;br&gt;&lt;div&gt;&lt;br&gt;&lt;/div&gt;&lt;div&gt;SDA = 0, SCL = 0&lt;/div&gt;" style="rounded=1;whiteSpace=wrap;html=1;align=center;verticalAlign=top;fontStyle=1;fontSize=14;" vertex="1" parent="1">
          <mxGeometry x="865" y="1650" width="180" height="100" as="geometry" />
        </mxCell>
        <mxCell id="Bj0vruQmG_XCiIiM3-yW-4" value="STOP2&lt;br&gt;&lt;div&gt;&lt;br&gt;&lt;/div&gt;&lt;div&gt;SDA = 1, SCL = 1&lt;/div&gt;" style="rounded=1;whiteSpace=wrap;html=1;align=center;verticalAlign=top;fontStyle=1;fontSize=14;" vertex="1" parent="1">
          <mxGeometry x="410" y="790" width="180" height="100" as="geometry" />
        </mxCell>
        <mxCell id="Bj0vruQmG_XCiIiM3-yW-8" value="" style="edgeStyle=orthogonalEdgeStyle;rounded=0;orthogonalLoop=1;jettySize=auto;html=1;" edge="1" parent="1" source="Bj0vruQmG_XCiIiM3-yW-5" target="Bj0vruQmG_XCiIiM3-yW-4">
          <mxGeometry relative="1" as="geometry" />
        </mxCell>
        <mxCell id="Bj0vruQmG_XCiIiM3-yW-5" value="STOP1&lt;br&gt;&lt;div&gt;&lt;br&gt;&lt;/div&gt;&lt;div&gt;SDA = 0, SCL = 1&lt;/div&gt;" style="rounded=1;whiteSpace=wrap;html=1;align=center;verticalAlign=top;fontStyle=1;fontSize=14;" vertex="1" parent="1">
          <mxGeometry x="410" y="930" width="180" height="100" as="geometry" />
        </mxCell>
        <mxCell id="Bj0vruQmG_XCiIiM3-yW-6" value="WAIT&lt;br&gt;&lt;div&gt;&lt;br&gt;&lt;/div&gt;&lt;div&gt;SDA = 0, SCL = 0&lt;/div&gt;" style="rounded=1;whiteSpace=wrap;html=1;align=center;verticalAlign=top;fontStyle=1;fontSize=14;" vertex="1" parent="1">
          <mxGeometry x="413" y="1220" width="180" height="100" as="geometry" />
        </mxCell>
        <mxCell id="Bj0vruQmG_XCiIiM3-yW-12" value="DATA1&lt;br&gt;&lt;div&gt;&lt;br&gt;&lt;/div&gt;&lt;div&gt;SDA = tx_data[7]&lt;/div&gt;&lt;div&gt;SCL = 0&lt;/div&gt;" style="rounded=1;whiteSpace=wrap;html=1;align=center;verticalAlign=top;fontStyle=1;fontSize=14;" vertex="1" parent="1">
          <mxGeometry x="1290" y="940" width="180" height="100" as="geometry" />
        </mxCell>
        <mxCell id="Bj0vruQmG_XCiIiM3-yW-14" value="DATA2&lt;br&gt;&lt;div&gt;&lt;br&gt;&lt;/div&gt;&lt;div&gt;SDA = tx_data[7]&lt;/div&gt;&lt;div&gt;SCL = 1&lt;/div&gt;" style="rounded=1;whiteSpace=wrap;html=1;align=center;verticalAlign=top;fontStyle=1;fontSize=14;" vertex="1" parent="1">
          <mxGeometry x="1290" y="1280" width="180" height="100" as="geometry" />
        </mxCell>
        <mxCell id="Bj0vruQmG_XCiIiM3-yW-15" value="DATA3&lt;br&gt;&lt;div&gt;&lt;br&gt;&lt;/div&gt;&lt;div&gt;SDA = tx_data[7]&lt;/div&gt;&lt;div&gt;SCL = 1&lt;/div&gt;" style="rounded=1;whiteSpace=wrap;html=1;align=center;verticalAlign=top;fontStyle=1;fontSize=14;" vertex="1" parent="1">
          <mxGeometry x="1290" y="1620" width="180" height="100" as="geometry" />
        </mxCell>
        <mxCell id="Bj0vruQmG_XCiIiM3-yW-16" value="DATA4&lt;br&gt;&lt;div&gt;&lt;br&gt;&lt;/div&gt;&lt;div&gt;SDA = tx_data[7]&lt;/div&gt;&lt;div&gt;SCL = 1&lt;/div&gt;" style="rounded=1;whiteSpace=wrap;html=1;align=center;verticalAlign=top;fontStyle=1;fontSize=14;" vertex="1" parent="1">
          <mxGeometry x="1290" y="1960" width="180" height="100" as="geometry" />
        </mxCell>
        <mxCell id="Bj0vruQmG_XCiIiM3-yW-17" value="I2C Master" style="rounded=1;whiteSpace=wrap;html=1;align=center;fontStyle=1;verticalAlign=top;fontSize=20;" vertex="1" parent="1">
          <mxGeometry x="880" y="440" width="260" height="380" as="geometry" />
        </mxCell>
        <mxCell id="Bj0vruQmG_XCiIiM3-yW-18" value="I2C Slave" style="rounded=1;whiteSpace=wrap;html=1;align=center;fontStyle=1;verticalAlign=top;fontSize=20;" vertex="1" parent="1">
          <mxGeometry x="1250" y="440" width="260" height="380" as="geometry" />
        </mxCell>
        <mxCell id="Bj0vruQmG_XCiIiM3-yW-21" style="edgeStyle=orthogonalEdgeStyle;rounded=0;orthogonalLoop=1;jettySize=auto;html=1;entryX=0;entryY=0.5;entryDx=0;entryDy=0;strokeWidth=2;" edge="1" parent="1" source="Bj0vruQmG_XCiIiM3-yW-19" target="Bj0vruQmG_XCiIiM3-yW-20">
          <mxGeometry relative="1" as="geometry" />
        </mxCell>
        <mxCell id="Bj0vruQmG_XCiIiM3-yW-19" value="&lt;b&gt;&lt;font style=&quot;font-size: 27px;&quot;&gt;SCL&lt;/font&gt;&lt;/b&gt;" style="text;html=1;align=center;verticalAlign=middle;whiteSpace=wrap;rounded=0;" vertex="1" parent="1">
          <mxGeometry x="1080" y="500" width="60" height="30" as="geometry" />
        </mxCell>
        <mxCell id="Bj0vruQmG_XCiIiM3-yW-20" value="&lt;b&gt;&lt;font style=&quot;font-size: 27px;&quot;&gt;SCL&lt;/font&gt;&lt;/b&gt;" style="text;html=1;align=center;verticalAlign=middle;whiteSpace=wrap;rounded=0;" vertex="1" parent="1">
          <mxGeometry x="1250" y="500" width="60" height="30" as="geometry" />
        </mxCell>
        <mxCell id="Bj0vruQmG_XCiIiM3-yW-22" value="&lt;b&gt;&lt;font style=&quot;font-size: 27px;&quot;&gt;SDA&lt;/font&gt;&lt;/b&gt;" style="text;html=1;align=center;verticalAlign=middle;whiteSpace=wrap;rounded=0;" vertex="1" parent="1">
          <mxGeometry x="1080" y="700" width="60" height="30" as="geometry" />
        </mxCell>
        <mxCell id="Bj0vruQmG_XCiIiM3-yW-23" value="&lt;b&gt;&lt;font style=&quot;font-size: 27px;&quot;&gt;SDA&lt;/font&gt;&lt;/b&gt;" style="text;html=1;align=center;verticalAlign=middle;whiteSpace=wrap;rounded=0;" vertex="1" parent="1">
          <mxGeometry x="1250" y="700" width="60" height="30" as="geometry" />
        </mxCell>
        <mxCell id="Bj0vruQmG_XCiIiM3-yW-24" style="edgeStyle=orthogonalEdgeStyle;rounded=0;orthogonalLoop=1;jettySize=auto;html=1;entryX=0;entryY=0.5;entryDx=0;entryDy=0;strokeWidth=2;" edge="1" source="Bj0vruQmG_XCiIiM3-yW-22" target="Bj0vruQmG_XCiIiM3-yW-23" parent="1">
          <mxGeometry relative="1" as="geometry" />
        </mxCell>
        <mxCell id="Bj0vruQmG_XCiIiM3-yW-25" value="&lt;b&gt;&lt;font style=&quot;font-size: 27px;&quot;&gt;tx_data&lt;/font&gt;&lt;/b&gt;" style="text;html=1;align=center;verticalAlign=middle;whiteSpace=wrap;rounded=0;" vertex="1" parent="1">
          <mxGeometry x="880" y="500" width="110" height="30" as="geometry" />
        </mxCell>
        <mxCell id="Bj0vruQmG_XCiIiM3-yW-26" value="&lt;span style=&quot;font-size: 27px;&quot;&gt;&lt;b&gt;start&lt;/b&gt;&lt;/span&gt;" style="text;html=1;align=center;verticalAlign=middle;whiteSpace=wrap;rounded=0;" vertex="1" parent="1">
          <mxGeometry x="880" y="560" width="110" height="30" as="geometry" />
        </mxCell>
        <mxCell id="Bj0vruQmG_XCiIiM3-yW-27" value="&lt;span style=&quot;font-size: 27px;&quot;&gt;&lt;b&gt;tx_done&lt;/b&gt;&lt;/span&gt;" style="text;html=1;align=center;verticalAlign=middle;whiteSpace=wrap;rounded=0;" vertex="1" parent="1">
          <mxGeometry x="880" y="620" width="110" height="30" as="geometry" />
        </mxCell>
        <mxCell id="Bj0vruQmG_XCiIiM3-yW-28" value="&lt;span style=&quot;font-size: 27px;&quot;&gt;&lt;b&gt;ready&lt;/b&gt;&lt;/span&gt;" style="text;html=1;align=center;verticalAlign=middle;whiteSpace=wrap;rounded=0;" vertex="1" parent="1">
          <mxGeometry x="880" y="690" width="110" height="30" as="geometry" />
        </mxCell>
        <mxCell id="Bj0vruQmG_XCiIiM3-yW-29" value="" style="endArrow=classic;html=1;rounded=0;entryX=0;entryY=0.5;entryDx=0;entryDy=0;strokeWidth=2;" edge="1" parent="1" target="Bj0vruQmG_XCiIiM3-yW-25">
          <mxGeometry width="50" height="50" relative="1" as="geometry">
            <mxPoint x="810" y="515" as="sourcePoint" />
            <mxPoint x="827" y="490" as="targetPoint" />
          </mxGeometry>
        </mxCell>
        <mxCell id="Bj0vruQmG_XCiIiM3-yW-33" value="&lt;span&gt;8&lt;/span&gt;" style="edgeLabel;html=1;align=center;verticalAlign=middle;resizable=0;points=[];fontStyle=1;fontSize=23;" vertex="1" connectable="0" parent="Bj0vruQmG_XCiIiM3-yW-29">
          <mxGeometry x="-0.5" y="3" relative="1" as="geometry">
            <mxPoint x="13" y="-2" as="offset" />
          </mxGeometry>
        </mxCell>
        <mxCell id="Bj0vruQmG_XCiIiM3-yW-30" value="" style="endArrow=classic;html=1;rounded=0;entryX=0;entryY=0.5;entryDx=0;entryDy=0;strokeWidth=2;" edge="1" parent="1">
          <mxGeometry width="50" height="50" relative="1" as="geometry">
            <mxPoint x="810" y="580" as="sourcePoint" />
            <mxPoint x="880" y="580" as="targetPoint" />
          </mxGeometry>
        </mxCell>
        <mxCell id="Bj0vruQmG_XCiIiM3-yW-31" value="" style="endArrow=none;html=1;rounded=0;entryX=0;entryY=0.5;entryDx=0;entryDy=0;strokeWidth=2;startArrow=classic;startFill=0;" edge="1" parent="1">
          <mxGeometry width="50" height="50" relative="1" as="geometry">
            <mxPoint x="810" y="640" as="sourcePoint" />
            <mxPoint x="880" y="640" as="targetPoint" />
          </mxGeometry>
        </mxCell>
        <mxCell id="Bj0vruQmG_XCiIiM3-yW-32" value="" style="endArrow=none;html=1;rounded=0;entryX=0;entryY=0.5;entryDx=0;entryDy=0;strokeWidth=2;startArrow=classic;startFill=0;" edge="1" parent="1">
          <mxGeometry width="50" height="50" relative="1" as="geometry">
            <mxPoint x="810" y="710" as="sourcePoint" />
            <mxPoint x="880" y="710" as="targetPoint" />
          </mxGeometry>
        </mxCell>
        <mxCell id="Bj0vruQmG_XCiIiM3-yW-36" style="edgeStyle=orthogonalEdgeStyle;rounded=0;orthogonalLoop=1;jettySize=auto;html=1;entryX=0;entryY=0.5;entryDx=0;entryDy=0;exitX=0;exitY=0.5;exitDx=0;exitDy=0;strokeWidth=2;" edge="1" parent="1" source="Bj0vruQmG_XCiIiM3-yW-34" target="Bj0vruQmG_XCiIiM3-yW-1">
          <mxGeometry relative="1" as="geometry" />
        </mxCell>
        <mxCell id="Bj0vruQmG_XCiIiM3-yW-47" value="N" style="edgeLabel;html=1;align=center;verticalAlign=middle;resizable=0;points=[];fontSize=23;fontStyle=1" vertex="1" connectable="0" parent="Bj0vruQmG_XCiIiM3-yW-36">
          <mxGeometry x="-0.1264" y="4" relative="1" as="geometry">
            <mxPoint y="1" as="offset" />
          </mxGeometry>
        </mxCell>
        <mxCell id="Bj0vruQmG_XCiIiM3-yW-39" value="" style="edgeStyle=orthogonalEdgeStyle;rounded=0;orthogonalLoop=1;jettySize=auto;html=1;strokeWidth=2;" edge="1" parent="1" source="Bj0vruQmG_XCiIiM3-yW-34" target="Bj0vruQmG_XCiIiM3-yW-38">
          <mxGeometry relative="1" as="geometry" />
        </mxCell>
        <mxCell id="Bj0vruQmG_XCiIiM3-yW-48" value="Y" style="edgeLabel;html=1;align=center;verticalAlign=middle;resizable=0;points=[];fontSize=23;fontStyle=1" vertex="1" connectable="0" parent="Bj0vruQmG_XCiIiM3-yW-39">
          <mxGeometry x="-0.2791" y="2" relative="1" as="geometry">
            <mxPoint x="13" y="-3" as="offset" />
          </mxGeometry>
        </mxCell>
        <mxCell id="Bj0vruQmG_XCiIiM3-yW-34" value="start==1" style="rhombus;whiteSpace=wrap;html=1;fontSize=22;verticalAlign=middle;rounded=1;fontStyle=1;" vertex="1" parent="1">
          <mxGeometry x="850" y="1077" width="210" height="80" as="geometry" />
        </mxCell>
        <mxCell id="Bj0vruQmG_XCiIiM3-yW-40" value="" style="edgeStyle=orthogonalEdgeStyle;rounded=0;orthogonalLoop=1;jettySize=auto;html=1;strokeWidth=2;" edge="1" parent="1" source="Bj0vruQmG_XCiIiM3-yW-38" target="Bj0vruQmG_XCiIiM3-yW-2">
          <mxGeometry relative="1" as="geometry" />
        </mxCell>
        <mxCell id="Bj0vruQmG_XCiIiM3-yW-38" value="&lt;span style=&quot;font-size: 14px;&quot;&gt;temp = tx_data&lt;/span&gt;" style="whiteSpace=wrap;html=1;fontSize=22;rounded=1;fontStyle=1;" vertex="1" parent="1">
          <mxGeometry x="895" y="1200" width="120" height="60" as="geometry" />
        </mxCell>
        <mxCell id="Bj0vruQmG_XCiIiM3-yW-44" value="" style="edgeStyle=orthogonalEdgeStyle;rounded=0;orthogonalLoop=1;jettySize=auto;html=1;entryX=0.5;entryY=1;entryDx=0;entryDy=0;strokeWidth=2;" edge="1" parent="1" source="Bj0vruQmG_XCiIiM3-yW-41" target="Bj0vruQmG_XCiIiM3-yW-43">
          <mxGeometry relative="1" as="geometry" />
        </mxCell>
        <mxCell id="Bj0vruQmG_XCiIiM3-yW-46" value="N" style="edgeLabel;html=1;align=center;verticalAlign=middle;resizable=0;points=[];fontStyle=1;fontSize=20;" vertex="1" connectable="0" parent="Bj0vruQmG_XCiIiM3-yW-44">
          <mxGeometry x="-0.2955" y="-4" relative="1" as="geometry">
            <mxPoint as="offset" />
          </mxGeometry>
        </mxCell>
        <mxCell id="Bj0vruQmG_XCiIiM3-yW-52" value="" style="edgeStyle=orthogonalEdgeStyle;rounded=0;orthogonalLoop=1;jettySize=auto;html=1;strokeWidth=2;" edge="1" parent="1" source="Bj0vruQmG_XCiIiM3-yW-41" target="Bj0vruQmG_XCiIiM3-yW-51">
          <mxGeometry relative="1" as="geometry" />
        </mxCell>
        <mxCell id="Bj0vruQmG_XCiIiM3-yW-54" value="&lt;span&gt;Y&lt;/span&gt;" style="edgeLabel;html=1;align=center;verticalAlign=middle;resizable=0;points=[];fontStyle=1;fontSize=22;" vertex="1" connectable="0" parent="Bj0vruQmG_XCiIiM3-yW-52">
          <mxGeometry x="-0.75" y="-2" relative="1" as="geometry">
            <mxPoint x="17" y="4" as="offset" />
          </mxGeometry>
        </mxCell>
        <mxCell id="Bj0vruQmG_XCiIiM3-yW-41" value="clk_count == 499" style="rhombus;whiteSpace=wrap;html=1;fontSize=17;verticalAlign=middle;rounded=1;fontStyle=1;" vertex="1" parent="1">
          <mxGeometry x="870" y="1440" width="170" height="80" as="geometry" />
        </mxCell>
        <mxCell id="Bj0vruQmG_XCiIiM3-yW-45" style="edgeStyle=orthogonalEdgeStyle;rounded=0;orthogonalLoop=1;jettySize=auto;html=1;entryX=0;entryY=0.5;entryDx=0;entryDy=0;exitX=0.5;exitY=0;exitDx=0;exitDy=0;strokeWidth=2;" edge="1" parent="1" source="Bj0vruQmG_XCiIiM3-yW-43" target="Bj0vruQmG_XCiIiM3-yW-2">
          <mxGeometry relative="1" as="geometry" />
        </mxCell>
        <mxCell id="Bj0vruQmG_XCiIiM3-yW-43" value="clk_count++" style="whiteSpace=wrap;html=1;fontSize=17;rounded=1;fontStyle=1;" vertex="1" parent="1">
          <mxGeometry x="730" y="1390" width="120" height="60" as="geometry" />
        </mxCell>
        <mxCell id="Bj0vruQmG_XCiIiM3-yW-53" value="" style="edgeStyle=orthogonalEdgeStyle;rounded=0;orthogonalLoop=1;jettySize=auto;html=1;strokeWidth=2;" edge="1" parent="1" source="Bj0vruQmG_XCiIiM3-yW-51" target="Bj0vruQmG_XCiIiM3-yW-3">
          <mxGeometry relative="1" as="geometry" />
        </mxCell>
        <mxCell id="Bj0vruQmG_XCiIiM3-yW-51" value="clk_count == 0" style="whiteSpace=wrap;html=1;fontSize=17;rounded=1;fontStyle=1;" vertex="1" parent="1">
          <mxGeometry x="890" y="1550" width="130" height="60" as="geometry" />
        </mxCell>
        <mxCell id="Bj0vruQmG_XCiIiM3-yW-55" value="" style="edgeStyle=orthogonalEdgeStyle;rounded=0;orthogonalLoop=1;jettySize=auto;html=1;strokeWidth=2;exitX=0.5;exitY=1;exitDx=0;exitDy=0;" edge="1" target="Bj0vruQmG_XCiIiM3-yW-60" parent="1" source="Bj0vruQmG_XCiIiM3-yW-3">
          <mxGeometry relative="1" as="geometry">
            <mxPoint x="955" y="1770" as="sourcePoint" />
          </mxGeometry>
        </mxCell>
        <mxCell id="Bj0vruQmG_XCiIiM3-yW-56" value="" style="edgeStyle=orthogonalEdgeStyle;rounded=0;orthogonalLoop=1;jettySize=auto;html=1;entryX=0.5;entryY=1;entryDx=0;entryDy=0;strokeWidth=2;" edge="1" source="Bj0vruQmG_XCiIiM3-yW-60" target="Bj0vruQmG_XCiIiM3-yW-62" parent="1">
          <mxGeometry relative="1" as="geometry" />
        </mxCell>
        <mxCell id="Bj0vruQmG_XCiIiM3-yW-57" value="N" style="edgeLabel;html=1;align=center;verticalAlign=middle;resizable=0;points=[];fontStyle=1;fontSize=20;" vertex="1" connectable="0" parent="Bj0vruQmG_XCiIiM3-yW-56">
          <mxGeometry x="-0.2955" y="-4" relative="1" as="geometry">
            <mxPoint as="offset" />
          </mxGeometry>
        </mxCell>
        <mxCell id="Bj0vruQmG_XCiIiM3-yW-58" value="" style="edgeStyle=orthogonalEdgeStyle;rounded=0;orthogonalLoop=1;jettySize=auto;html=1;strokeWidth=2;" edge="1" source="Bj0vruQmG_XCiIiM3-yW-60" target="Bj0vruQmG_XCiIiM3-yW-64" parent="1">
          <mxGeometry relative="1" as="geometry" />
        </mxCell>
        <mxCell id="Bj0vruQmG_XCiIiM3-yW-59" value="&lt;span&gt;Y&lt;/span&gt;" style="edgeLabel;html=1;align=center;verticalAlign=middle;resizable=0;points=[];fontStyle=1;fontSize=22;" vertex="1" connectable="0" parent="Bj0vruQmG_XCiIiM3-yW-58">
          <mxGeometry x="-0.75" y="-2" relative="1" as="geometry">
            <mxPoint x="17" y="4" as="offset" />
          </mxGeometry>
        </mxCell>
        <mxCell id="Bj0vruQmG_XCiIiM3-yW-60" value="clk_count == 499" style="rhombus;whiteSpace=wrap;html=1;fontSize=17;verticalAlign=middle;rounded=1;fontStyle=1;" vertex="1" parent="1">
          <mxGeometry x="870" y="1779" width="170" height="80" as="geometry" />
        </mxCell>
        <mxCell id="Bj0vruQmG_XCiIiM3-yW-61" style="edgeStyle=orthogonalEdgeStyle;rounded=0;orthogonalLoop=1;jettySize=auto;html=1;entryX=0;entryY=0.5;entryDx=0;entryDy=0;exitX=0.5;exitY=0;exitDx=0;exitDy=0;strokeWidth=2;" edge="1" source="Bj0vruQmG_XCiIiM3-yW-62" parent="1" target="Bj0vruQmG_XCiIiM3-yW-3">
          <mxGeometry relative="1" as="geometry">
            <mxPoint x="865" y="1720" as="targetPoint" />
          </mxGeometry>
        </mxCell>
        <mxCell id="Bj0vruQmG_XCiIiM3-yW-62" value="clk_count++" style="whiteSpace=wrap;html=1;fontSize=17;rounded=1;fontStyle=1;" vertex="1" parent="1">
          <mxGeometry x="730" y="1729" width="120" height="60" as="geometry" />
        </mxCell>
        <mxCell id="Bj0vruQmG_XCiIiM3-yW-63" value="" style="edgeStyle=orthogonalEdgeStyle;rounded=0;orthogonalLoop=1;jettySize=auto;html=1;entryX=0.5;entryY=0;entryDx=0;entryDy=0;strokeWidth=2;" edge="1" source="Bj0vruQmG_XCiIiM3-yW-64" parent="1" target="Bj0vruQmG_XCiIiM3-yW-12">
          <mxGeometry relative="1" as="geometry">
            <mxPoint x="955" y="1989" as="targetPoint" />
            <Array as="points">
              <mxPoint x="1100" y="1919" />
              <mxPoint x="1100" y="920" />
              <mxPoint x="1380" y="920" />
            </Array>
          </mxGeometry>
        </mxCell>
        <mxCell id="Bj0vruQmG_XCiIiM3-yW-64" value="clk_count == 0" style="whiteSpace=wrap;html=1;fontSize=17;rounded=1;fontStyle=1;" vertex="1" parent="1">
          <mxGeometry x="890" y="1889" width="130" height="60" as="geometry" />
        </mxCell>
        <mxCell id="Bj0vruQmG_XCiIiM3-yW-69" value="" style="edgeStyle=orthogonalEdgeStyle;rounded=0;orthogonalLoop=1;jettySize=auto;html=1;strokeWidth=2;exitX=0.5;exitY=1;exitDx=0;exitDy=0;" edge="1" parent="1" target="Bj0vruQmG_XCiIiM3-yW-74" source="Bj0vruQmG_XCiIiM3-yW-12">
          <mxGeometry relative="1" as="geometry">
            <mxPoint x="1385" y="1042.5" as="sourcePoint" />
          </mxGeometry>
        </mxCell>
        <mxCell id="Bj0vruQmG_XCiIiM3-yW-70" value="" style="edgeStyle=orthogonalEdgeStyle;rounded=0;orthogonalLoop=1;jettySize=auto;html=1;entryX=0.5;entryY=1;entryDx=0;entryDy=0;strokeWidth=2;" edge="1" parent="1" source="Bj0vruQmG_XCiIiM3-yW-74" target="Bj0vruQmG_XCiIiM3-yW-76">
          <mxGeometry relative="1" as="geometry" />
        </mxCell>
        <mxCell id="Bj0vruQmG_XCiIiM3-yW-71" value="N" style="edgeLabel;html=1;align=center;verticalAlign=middle;resizable=0;points=[];fontStyle=1;fontSize=20;" vertex="1" connectable="0" parent="Bj0vruQmG_XCiIiM3-yW-70">
          <mxGeometry x="-0.2955" y="-4" relative="1" as="geometry">
            <mxPoint as="offset" />
          </mxGeometry>
        </mxCell>
        <mxCell id="Bj0vruQmG_XCiIiM3-yW-72" value="" style="edgeStyle=orthogonalEdgeStyle;rounded=0;orthogonalLoop=1;jettySize=auto;html=1;strokeWidth=2;" edge="1" parent="1" source="Bj0vruQmG_XCiIiM3-yW-74" target="Bj0vruQmG_XCiIiM3-yW-77">
          <mxGeometry relative="1" as="geometry" />
        </mxCell>
        <mxCell id="Bj0vruQmG_XCiIiM3-yW-73" value="&lt;span&gt;Y&lt;/span&gt;" style="edgeLabel;html=1;align=center;verticalAlign=middle;resizable=0;points=[];fontStyle=1;fontSize=22;" vertex="1" connectable="0" parent="Bj0vruQmG_XCiIiM3-yW-72">
          <mxGeometry x="-0.75" y="-2" relative="1" as="geometry">
            <mxPoint x="17" y="4" as="offset" />
          </mxGeometry>
        </mxCell>
        <mxCell id="Bj0vruQmG_XCiIiM3-yW-74" value="clk_count == 249" style="rhombus;whiteSpace=wrap;html=1;fontSize=17;verticalAlign=middle;rounded=1;fontStyle=1;" vertex="1" parent="1">
          <mxGeometry x="1295" y="1071.5" width="170" height="80" as="geometry" />
        </mxCell>
        <mxCell id="Bj0vruQmG_XCiIiM3-yW-75" style="edgeStyle=orthogonalEdgeStyle;rounded=0;orthogonalLoop=1;jettySize=auto;html=1;entryX=0;entryY=0.5;entryDx=0;entryDy=0;exitX=0.5;exitY=0;exitDx=0;exitDy=0;strokeWidth=2;" edge="1" parent="1" source="Bj0vruQmG_XCiIiM3-yW-76" target="Bj0vruQmG_XCiIiM3-yW-12">
          <mxGeometry relative="1" as="geometry">
            <mxPoint x="1285" y="990" as="targetPoint" />
            <Array as="points">
              <mxPoint x="1215" y="990" />
            </Array>
          </mxGeometry>
        </mxCell>
        <mxCell id="Bj0vruQmG_XCiIiM3-yW-76" value="clk_count++" style="whiteSpace=wrap;html=1;fontSize=17;rounded=1;fontStyle=1;" vertex="1" parent="1">
          <mxGeometry x="1155" y="1021.5" width="120" height="60" as="geometry" />
        </mxCell>
        <mxCell id="Bj0vruQmG_XCiIiM3-yW-80" value="" style="edgeStyle=orthogonalEdgeStyle;rounded=0;orthogonalLoop=1;jettySize=auto;html=1;" edge="1" parent="1" source="Bj0vruQmG_XCiIiM3-yW-77" target="Bj0vruQmG_XCiIiM3-yW-14">
          <mxGeometry relative="1" as="geometry" />
        </mxCell>
        <mxCell id="Bj0vruQmG_XCiIiM3-yW-77" value="clk_count == 0" style="whiteSpace=wrap;html=1;fontSize=17;rounded=1;fontStyle=1;" vertex="1" parent="1">
          <mxGeometry x="1315" y="1181.5" width="130" height="60" as="geometry" />
        </mxCell>
        <mxCell id="Bj0vruQmG_XCiIiM3-yW-81" value="" style="edgeStyle=orthogonalEdgeStyle;rounded=0;orthogonalLoop=1;jettySize=auto;html=1;strokeWidth=2;exitX=0.5;exitY=1;exitDx=0;exitDy=0;" edge="1" parent="1" target="Bj0vruQmG_XCiIiM3-yW-86">
          <mxGeometry relative="1" as="geometry">
            <mxPoint x="1380" y="1380" as="sourcePoint" />
          </mxGeometry>
        </mxCell>
        <mxCell id="Bj0vruQmG_XCiIiM3-yW-82" value="" style="edgeStyle=orthogonalEdgeStyle;rounded=0;orthogonalLoop=1;jettySize=auto;html=1;entryX=0.5;entryY=1;entryDx=0;entryDy=0;strokeWidth=2;" edge="1" parent="1" source="Bj0vruQmG_XCiIiM3-yW-86" target="Bj0vruQmG_XCiIiM3-yW-88">
          <mxGeometry relative="1" as="geometry" />
        </mxCell>
        <mxCell id="Bj0vruQmG_XCiIiM3-yW-83" value="N" style="edgeLabel;html=1;align=center;verticalAlign=middle;resizable=0;points=[];fontStyle=1;fontSize=20;" vertex="1" connectable="0" parent="Bj0vruQmG_XCiIiM3-yW-82">
          <mxGeometry x="-0.2955" y="-4" relative="1" as="geometry">
            <mxPoint as="offset" />
          </mxGeometry>
        </mxCell>
        <mxCell id="Bj0vruQmG_XCiIiM3-yW-84" value="" style="edgeStyle=orthogonalEdgeStyle;rounded=0;orthogonalLoop=1;jettySize=auto;html=1;strokeWidth=2;" edge="1" parent="1" source="Bj0vruQmG_XCiIiM3-yW-86" target="Bj0vruQmG_XCiIiM3-yW-89">
          <mxGeometry relative="1" as="geometry" />
        </mxCell>
        <mxCell id="Bj0vruQmG_XCiIiM3-yW-85" value="&lt;span&gt;Y&lt;/span&gt;" style="edgeLabel;html=1;align=center;verticalAlign=middle;resizable=0;points=[];fontStyle=1;fontSize=22;" vertex="1" connectable="0" parent="Bj0vruQmG_XCiIiM3-yW-84">
          <mxGeometry x="-0.75" y="-2" relative="1" as="geometry">
            <mxPoint x="17" y="4" as="offset" />
          </mxGeometry>
        </mxCell>
        <mxCell id="Bj0vruQmG_XCiIiM3-yW-86" value="clk_count == 249" style="rhombus;whiteSpace=wrap;html=1;fontSize=17;verticalAlign=middle;rounded=1;fontStyle=1;" vertex="1" parent="1">
          <mxGeometry x="1295" y="1411.5" width="170" height="80" as="geometry" />
        </mxCell>
        <mxCell id="Bj0vruQmG_XCiIiM3-yW-87" style="edgeStyle=orthogonalEdgeStyle;rounded=0;orthogonalLoop=1;jettySize=auto;html=1;entryX=0;entryY=0.5;entryDx=0;entryDy=0;exitX=0.5;exitY=0;exitDx=0;exitDy=0;strokeWidth=2;" edge="1" parent="1" source="Bj0vruQmG_XCiIiM3-yW-88">
          <mxGeometry relative="1" as="geometry">
            <mxPoint x="1290" y="1330" as="targetPoint" />
            <Array as="points">
              <mxPoint x="1215" y="1330" />
            </Array>
          </mxGeometry>
        </mxCell>
        <mxCell id="Bj0vruQmG_XCiIiM3-yW-88" value="clk_count++" style="whiteSpace=wrap;html=1;fontSize=17;rounded=1;fontStyle=1;" vertex="1" parent="1">
          <mxGeometry x="1155" y="1361.5" width="120" height="60" as="geometry" />
        </mxCell>
        <mxCell id="Bj0vruQmG_XCiIiM3-yW-90" value="" style="edgeStyle=orthogonalEdgeStyle;rounded=0;orthogonalLoop=1;jettySize=auto;html=1;" edge="1" parent="1" source="Bj0vruQmG_XCiIiM3-yW-89" target="Bj0vruQmG_XCiIiM3-yW-15">
          <mxGeometry relative="1" as="geometry" />
        </mxCell>
        <mxCell id="Bj0vruQmG_XCiIiM3-yW-89" value="clk_count == 0" style="whiteSpace=wrap;html=1;fontSize=17;rounded=1;fontStyle=1;" vertex="1" parent="1">
          <mxGeometry x="1315" y="1521.5" width="130" height="60" as="geometry" />
        </mxCell>
        <mxCell id="Bj0vruQmG_XCiIiM3-yW-91" value="" style="edgeStyle=orthogonalEdgeStyle;rounded=0;orthogonalLoop=1;jettySize=auto;html=1;strokeWidth=2;exitX=0.5;exitY=1;exitDx=0;exitDy=0;" edge="1" parent="1" target="Bj0vruQmG_XCiIiM3-yW-96">
          <mxGeometry relative="1" as="geometry">
            <mxPoint x="1380" y="1720" as="sourcePoint" />
          </mxGeometry>
        </mxCell>
        <mxCell id="Bj0vruQmG_XCiIiM3-yW-92" value="" style="edgeStyle=orthogonalEdgeStyle;rounded=0;orthogonalLoop=1;jettySize=auto;html=1;entryX=0.5;entryY=1;entryDx=0;entryDy=0;strokeWidth=2;" edge="1" parent="1" source="Bj0vruQmG_XCiIiM3-yW-96" target="Bj0vruQmG_XCiIiM3-yW-98">
          <mxGeometry relative="1" as="geometry" />
        </mxCell>
        <mxCell id="Bj0vruQmG_XCiIiM3-yW-93" value="N" style="edgeLabel;html=1;align=center;verticalAlign=middle;resizable=0;points=[];fontStyle=1;fontSize=20;" vertex="1" connectable="0" parent="Bj0vruQmG_XCiIiM3-yW-92">
          <mxGeometry x="-0.2955" y="-4" relative="1" as="geometry">
            <mxPoint as="offset" />
          </mxGeometry>
        </mxCell>
        <mxCell id="Bj0vruQmG_XCiIiM3-yW-94" value="" style="edgeStyle=orthogonalEdgeStyle;rounded=0;orthogonalLoop=1;jettySize=auto;html=1;strokeWidth=2;" edge="1" parent="1" source="Bj0vruQmG_XCiIiM3-yW-96" target="Bj0vruQmG_XCiIiM3-yW-99">
          <mxGeometry relative="1" as="geometry" />
        </mxCell>
        <mxCell id="Bj0vruQmG_XCiIiM3-yW-95" value="&lt;span&gt;Y&lt;/span&gt;" style="edgeLabel;html=1;align=center;verticalAlign=middle;resizable=0;points=[];fontStyle=1;fontSize=22;" vertex="1" connectable="0" parent="Bj0vruQmG_XCiIiM3-yW-94">
          <mxGeometry x="-0.75" y="-2" relative="1" as="geometry">
            <mxPoint x="17" y="4" as="offset" />
          </mxGeometry>
        </mxCell>
        <mxCell id="Bj0vruQmG_XCiIiM3-yW-96" value="clk_count == 249" style="rhombus;whiteSpace=wrap;html=1;fontSize=17;verticalAlign=middle;rounded=1;fontStyle=1;" vertex="1" parent="1">
          <mxGeometry x="1295" y="1751.5" width="170" height="80" as="geometry" />
        </mxCell>
        <mxCell id="Bj0vruQmG_XCiIiM3-yW-97" style="edgeStyle=orthogonalEdgeStyle;rounded=0;orthogonalLoop=1;jettySize=auto;html=1;entryX=0;entryY=0.5;entryDx=0;entryDy=0;exitX=0.5;exitY=0;exitDx=0;exitDy=0;strokeWidth=2;" edge="1" parent="1" source="Bj0vruQmG_XCiIiM3-yW-98">
          <mxGeometry relative="1" as="geometry">
            <mxPoint x="1290" y="1670" as="targetPoint" />
            <Array as="points">
              <mxPoint x="1215" y="1670" />
            </Array>
          </mxGeometry>
        </mxCell>
        <mxCell id="Bj0vruQmG_XCiIiM3-yW-98" value="clk_count++" style="whiteSpace=wrap;html=1;fontSize=17;rounded=1;fontStyle=1;" vertex="1" parent="1">
          <mxGeometry x="1155" y="1701.5" width="120" height="60" as="geometry" />
        </mxCell>
        <mxCell id="Bj0vruQmG_XCiIiM3-yW-100" value="" style="edgeStyle=orthogonalEdgeStyle;rounded=0;orthogonalLoop=1;jettySize=auto;html=1;" edge="1" parent="1" source="Bj0vruQmG_XCiIiM3-yW-99" target="Bj0vruQmG_XCiIiM3-yW-16">
          <mxGeometry relative="1" as="geometry" />
        </mxCell>
        <mxCell id="Bj0vruQmG_XCiIiM3-yW-99" value="clk_count == 0" style="whiteSpace=wrap;html=1;fontSize=17;rounded=1;fontStyle=1;" vertex="1" parent="1">
          <mxGeometry x="1315" y="1861.5" width="130" height="60" as="geometry" />
        </mxCell>
        <mxCell id="Bj0vruQmG_XCiIiM3-yW-101" value="" style="edgeStyle=orthogonalEdgeStyle;rounded=0;orthogonalLoop=1;jettySize=auto;html=1;strokeWidth=2;exitX=0.5;exitY=1;exitDx=0;exitDy=0;" edge="1" parent="1" target="Bj0vruQmG_XCiIiM3-yW-106">
          <mxGeometry relative="1" as="geometry">
            <mxPoint x="1380" y="2060" as="sourcePoint" />
          </mxGeometry>
        </mxCell>
        <mxCell id="Bj0vruQmG_XCiIiM3-yW-102" value="" style="edgeStyle=orthogonalEdgeStyle;rounded=0;orthogonalLoop=1;jettySize=auto;html=1;entryX=0.5;entryY=1;entryDx=0;entryDy=0;strokeWidth=2;" edge="1" parent="1" source="Bj0vruQmG_XCiIiM3-yW-106" target="Bj0vruQmG_XCiIiM3-yW-108">
          <mxGeometry relative="1" as="geometry" />
        </mxCell>
        <mxCell id="Bj0vruQmG_XCiIiM3-yW-103" value="N" style="edgeLabel;html=1;align=center;verticalAlign=middle;resizable=0;points=[];fontStyle=1;fontSize=20;" vertex="1" connectable="0" parent="Bj0vruQmG_XCiIiM3-yW-102">
          <mxGeometry x="-0.2955" y="-4" relative="1" as="geometry">
            <mxPoint as="offset" />
          </mxGeometry>
        </mxCell>
        <mxCell id="Bj0vruQmG_XCiIiM3-yW-104" value="" style="edgeStyle=orthogonalEdgeStyle;rounded=0;orthogonalLoop=1;jettySize=auto;html=1;strokeWidth=2;" edge="1" parent="1" source="Bj0vruQmG_XCiIiM3-yW-106" target="Bj0vruQmG_XCiIiM3-yW-109">
          <mxGeometry relative="1" as="geometry" />
        </mxCell>
        <mxCell id="Bj0vruQmG_XCiIiM3-yW-105" value="&lt;span&gt;Y&lt;/span&gt;" style="edgeLabel;html=1;align=center;verticalAlign=middle;resizable=0;points=[];fontStyle=1;fontSize=22;" vertex="1" connectable="0" parent="Bj0vruQmG_XCiIiM3-yW-104">
          <mxGeometry x="-0.75" y="-2" relative="1" as="geometry">
            <mxPoint x="17" y="4" as="offset" />
          </mxGeometry>
        </mxCell>
        <mxCell id="Bj0vruQmG_XCiIiM3-yW-106" value="clk_count == 249" style="rhombus;whiteSpace=wrap;html=1;fontSize=17;verticalAlign=middle;rounded=1;fontStyle=1;" vertex="1" parent="1">
          <mxGeometry x="1295" y="2091.5" width="170" height="80" as="geometry" />
        </mxCell>
        <mxCell id="Bj0vruQmG_XCiIiM3-yW-107" style="edgeStyle=orthogonalEdgeStyle;rounded=0;orthogonalLoop=1;jettySize=auto;html=1;entryX=0;entryY=0.5;entryDx=0;entryDy=0;exitX=0.5;exitY=0;exitDx=0;exitDy=0;strokeWidth=2;" edge="1" parent="1" source="Bj0vruQmG_XCiIiM3-yW-108">
          <mxGeometry relative="1" as="geometry">
            <mxPoint x="1290" y="2010" as="targetPoint" />
            <Array as="points">
              <mxPoint x="1215" y="2010" />
            </Array>
          </mxGeometry>
        </mxCell>
        <mxCell id="Bj0vruQmG_XCiIiM3-yW-108" value="clk_count++" style="whiteSpace=wrap;html=1;fontSize=17;rounded=1;fontStyle=1;" vertex="1" parent="1">
          <mxGeometry x="1155" y="2041.5" width="120" height="60" as="geometry" />
        </mxCell>
        <mxCell id="Bj0vruQmG_XCiIiM3-yW-111" value="" style="edgeStyle=orthogonalEdgeStyle;rounded=0;orthogonalLoop=1;jettySize=auto;html=1;strokeWidth=2;" edge="1" parent="1" source="Bj0vruQmG_XCiIiM3-yW-109" target="Bj0vruQmG_XCiIiM3-yW-110">
          <mxGeometry relative="1" as="geometry" />
        </mxCell>
        <mxCell id="Bj0vruQmG_XCiIiM3-yW-109" value="clk_count == 0" style="whiteSpace=wrap;html=1;fontSize=17;rounded=1;fontStyle=1;" vertex="1" parent="1">
          <mxGeometry x="1315" y="2201.5" width="130" height="60" as="geometry" />
        </mxCell>
        <mxCell id="Bj0vruQmG_XCiIiM3-yW-112" style="edgeStyle=orthogonalEdgeStyle;rounded=0;orthogonalLoop=1;jettySize=auto;html=1;entryX=1;entryY=0.5;entryDx=0;entryDy=0;strokeWidth=2;" edge="1" parent="1" source="Bj0vruQmG_XCiIiM3-yW-110" target="Bj0vruQmG_XCiIiM3-yW-12">
          <mxGeometry relative="1" as="geometry">
            <Array as="points">
              <mxPoint x="1520" y="2372" />
              <mxPoint x="1520" y="990" />
            </Array>
          </mxGeometry>
        </mxCell>
        <mxCell id="Bj0vruQmG_XCiIiM3-yW-117" value="N" style="edgeLabel;html=1;align=center;verticalAlign=middle;resizable=0;points=[];fontStyle=1;fontSize=22;" vertex="1" connectable="0" parent="Bj0vruQmG_XCiIiM3-yW-112">
          <mxGeometry x="-0.9504" y="-2" relative="1" as="geometry">
            <mxPoint y="1" as="offset" />
          </mxGeometry>
        </mxCell>
        <mxCell id="Bj0vruQmG_XCiIiM3-yW-115" value="" style="edgeStyle=orthogonalEdgeStyle;rounded=0;orthogonalLoop=1;jettySize=auto;html=1;strokeWidth=2;" edge="1" parent="1" source="Bj0vruQmG_XCiIiM3-yW-110" target="Bj0vruQmG_XCiIiM3-yW-114">
          <mxGeometry relative="1" as="geometry" />
        </mxCell>
        <mxCell id="Bj0vruQmG_XCiIiM3-yW-116" value="Y" style="edgeLabel;html=1;align=center;verticalAlign=middle;resizable=0;points=[];fontStyle=1;fontSize=22;" vertex="1" connectable="0" parent="Bj0vruQmG_XCiIiM3-yW-115">
          <mxGeometry x="-0.1625" y="3" relative="1" as="geometry">
            <mxPoint as="offset" />
          </mxGeometry>
        </mxCell>
        <mxCell id="Bj0vruQmG_XCiIiM3-yW-110" value="bit_count == 7" style="rhombus;whiteSpace=wrap;html=1;fontSize=17;rounded=1;fontStyle=1;" vertex="1" parent="1">
          <mxGeometry x="1300" y="2331.5" width="160" height="80" as="geometry" />
        </mxCell>
        <mxCell id="Bj0vruQmG_XCiIiM3-yW-113" value="bit_count++" style="whiteSpace=wrap;html=1;fontSize=17;rounded=1;fontStyle=1;" vertex="1" parent="1">
          <mxGeometry x="1460" y="1521.5" width="130" height="60" as="geometry" />
        </mxCell>
        <mxCell id="Bj0vruQmG_XCiIiM3-yW-114" value="ACK == 1" style="rhombus;whiteSpace=wrap;html=1;fontSize=17;rounded=1;fontStyle=1;" vertex="1" parent="1">
          <mxGeometry x="1300" y="2491.5" width="160" height="80" as="geometry" />
        </mxCell>
      </root>
    </mxGraphModel>
  </diagram>
</mxfile>
